<svg width="24" height="25" viewBox="0 0 24 25" fill="none" xmlns="http://www.w3.org/2000/svg">
<rect y="0.5" width="24" height="24" rx="12" fill="#361566"/>
<path d="M6.33276 11.7915C5.94156 11.7915 5.62443 12.1086 5.62443 12.4998C5.62443 12.891 5.94156 13.2081 6.33276 13.2081L6.33276 11.7915ZM17.6661 13.2081C18.0573 13.2081 18.3744 12.891 18.3744 12.4998C18.3744 12.1086 18.0573 11.7915 17.6661 11.7915V13.2081ZM15.3314 8.45503C15.0535 8.17965 14.6051 8.18165 14.3297 8.4595C14.0543 8.73736 14.0563 9.18584 14.3341 9.46123L15.3314 8.45503ZM16.0815 10.1958L15.5829 10.6989L16.0815 10.1958ZM16.0815 14.8038L16.5802 15.3069L16.0815 14.8038ZM14.3341 15.5384C14.0563 15.8138 14.0543 16.2622 14.3297 16.5401C14.6051 16.8179 15.0535 16.8199 15.3314 16.5446L14.3341 15.5384ZM17.652 12.2779L18.3547 12.1883V12.1883L17.652 12.2779ZM17.652 12.7217L18.3547 12.8113V12.8113L17.652 12.7217ZM6.33276 13.2081L17.6661 13.2081V11.7915L6.33276 11.7915L6.33276 13.2081ZM14.3341 9.46123L15.5829 10.6989L16.5802 9.69271L15.3314 8.45503L14.3341 9.46123ZM15.5829 14.3007L14.3341 15.5384L15.3314 16.5446L16.5802 15.3069L15.5829 14.3007ZM15.5829 10.6989C16.0927 11.2041 16.4317 11.5417 16.6592 11.8249C16.8777 12.097 16.9343 12.2494 16.9494 12.3674L18.3547 12.1883C18.293 11.7048 18.0624 11.3097 17.7638 10.9379C17.4741 10.5772 17.0663 10.1745 16.5802 9.69271L15.5829 10.6989ZM16.5802 15.3069C17.0663 14.8251 17.4741 14.4224 17.7638 14.0617C18.0624 13.6899 18.293 13.2948 18.3547 12.8113L16.9494 12.6322C16.9343 12.7502 16.8777 12.9026 16.6592 13.1747C16.4317 13.4579 16.0927 13.7955 15.5829 14.3007L16.5802 15.3069ZM16.9494 12.3674C16.9606 12.4553 16.9606 12.5443 16.9494 12.6322L18.3547 12.8113C18.381 12.6045 18.381 12.3951 18.3547 12.1883L16.9494 12.3674Z" fill="#FAD278"/>
</svg>
