<svg width="36" height="36" viewBox="0 0 36 36" fill="none" xmlns="http://www.w3.org/2000/svg">
<rect width="36" height="36" rx="8" fill="#361566"/>
<path fill-rule="evenodd" clip-rule="evenodd" d="M13.5 10.1327C12.4586 10.2561 11.6947 10.4946 11.0611 10.9549C10.6366 11.2633 10.2633 11.6366 9.95491 12.0611C9 13.3754 9 15.2503 9 19C9 22.7497 9 24.6246 9.95491 25.9389C10.2633 26.3634 10.6366 26.7367 11.0611 27.0451C12.3754 28 14.2503 28 18 28C18.8389 28 19.584 28 20.25 27.9893L20.25 27.9192C20.2499 27.0672 20.2499 26.5482 20.3208 26.1005C20.7105 23.6401 22.6401 21.7105 25.1005 21.3208C25.5482 21.2499 26.0672 21.2499 26.9192 21.25L26.9893 21.25C27 20.5842 27 19.8392 27 19.0005C27 15.2507 27 13.3754 26.0451 12.0611C25.7367 11.6366 25.3634 11.2633 24.9389 10.9549C24.3053 10.4946 23.5414 10.2561 22.5 10.1327V11C22.5 11.8284 21.8284 12.5 21 12.5C20.1716 12.5 19.5 11.8284 19.5 11V10.0028C19.0359 10 18.5372 10 18 10C17.4628 10 16.9641 10 16.5 10.0028V11C16.5 11.8284 15.8284 12.5 15 12.5C14.1716 12.5 13.5 11.8284 13.5 11V10.1327ZM13 16C13.5523 16 14 15.5523 14 15C14 14.4477 13.5523 14 13 14C12.4477 14 12 14.4477 12 15C12 15.5523 12.4477 16 13 16ZM14 19C14 19.5523 13.5523 20 13 20C12.4477 20 12 19.5523 12 19C12 18.4477 12.4477 18 13 18C13.5523 18 14 18.4477 14 19ZM18 16C18.5523 16 19 15.5523 19 15C19 14.4477 18.5523 14 18 14C17.4477 14 17 14.4477 17 15C17 15.5523 17.4477 16 18 16ZM19 19C19 19.5523 18.5523 20 18 20C17.4477 20 17 19.5523 17 19C17 18.4477 17.4477 18 18 18C18.5523 18 19 18.4477 19 19ZM18 24C18.5523 24 19 23.5523 19 23C19 22.4477 18.5523 22 18 22C17.4477 22 17 22.4477 17 23C17 23.5523 17.4477 24 18 24ZM24 15C24 15.5523 23.5523 16 23 16C22.4477 16 22 15.5523 22 15C22 14.4477 22.4477 14 23 14C23.5523 14 24 14.4477 24 15ZM23 20C23.5523 20 24 19.5523 24 19C24 18.4477 23.5523 18 23 18C22.4477 18 22 18.4477 22 19C22 19.5523 22.4477 20 23 20ZM14 23C14 23.5523 13.5523 24 13 24C12.4477 24 12 23.5523 12 23C12 22.4477 12.4477 22 13 22C13.5523 22 14 22.4477 14 23Z" fill="white"/>
<path d="M26.9347 22.75C26.0243 22.7501 25.6435 22.7535 25.3352 22.8023C23.5166 23.0904 22.0904 24.5166 21.8023 26.3352C21.7535 26.6435 21.7501 27.0243 21.75 27.9347C23.1896 27.8403 24.1622 27.6094 24.9389 27.0451C25.3634 26.7367 25.7367 26.3634 26.0451 25.9389C26.6094 25.1622 26.8403 24.1896 26.9347 22.75Z" fill="white"/>
<path d="M15.75 8C15.75 7.58579 15.4142 7.25 15 7.25C14.5858 7.25 14.25 7.58579 14.25 8V11C14.25 11.4142 14.5858 11.75 15 11.75C15.4142 11.75 15.75 11.4142 15.75 11V8Z" fill="white"/>
<path d="M21.75 8C21.75 7.58579 21.4142 7.25 21 7.25C20.5858 7.25 20.25 7.58579 20.25 8V11C20.25 11.4142 20.5858 11.75 21 11.75C21.4142 11.75 21.75 11.4142 21.75 11V8Z" fill="white"/>
</svg>
