<svg width="37" height="36" viewBox="0 0 37 36" fill="none" xmlns="http://www.w3.org/2000/svg">
<rect x="0.666748" width="36" height="36" rx="8" fill="#361566"/>
<path fill-rule="evenodd" clip-rule="evenodd" d="M18.6667 7.50003C12.7297 7.50003 7.91675 12.313 7.91675 18.25C7.91675 24.1871 12.7297 29 18.6667 29C24.6038 29 29.4167 24.1871 29.4167 18.25C29.4167 12.313 24.6038 7.50003 18.6667 7.50003ZM19.4168 14.25C19.4168 13.8358 19.081 13.5 18.6668 13.5C18.2525 13.5 17.9168 13.8358 17.9168 14.25V18.4559C17.9168 18.7747 17.795 19.0814 17.5763 19.3134L16.121 20.8569C15.8369 21.1582 15.8509 21.6329 16.1523 21.9171C16.4536 22.2012 16.9283 22.1872 17.2125 21.8858L18.6677 20.3424C19.1488 19.8321 19.4168 19.1572 19.4168 18.4559V14.25Z" fill="white"/>
<path d="M12.6353 7.83568C12.9587 7.57692 13.0112 7.10495 12.7524 6.78151C12.4936 6.45806 12.0217 6.40562 11.6982 6.66438L9.19823 8.66438C8.87478 8.92313 8.82234 9.3951 9.0811 9.71855C9.33985 10.042 9.81182 10.0944 10.1353 9.83568L12.6353 7.83568Z" fill="white"/>
<path d="M25.6353 6.66438C25.3118 6.40562 24.8399 6.45806 24.5811 6.78151C24.3223 7.10495 24.3748 7.57692 24.6982 7.83568L27.1982 9.83568C27.5217 10.0944 27.9936 10.042 28.2524 9.71855C28.5112 9.3951 28.4587 8.92313 28.1353 8.66438L25.6353 6.66438Z" fill="white"/>
</svg>
