<svg width="16" height="16" viewBox="0 0 16 16" fill="none" xmlns="http://www.w3.org/2000/svg">
<path fill-rule="evenodd" clip-rule="evenodd" d="M10.98 16V9.804H13.06L13.3712 7.3896H10.9792V5.848C10.9792 5.1488 11.1736 4.672 12.1768 4.672H13.4552V2.512C12.8361 2.44611 12.2138 2.41407 11.5912 2.416C9.748 2.416 8.4864 3.5416 8.4864 5.608V7.3896H6.4V9.804H8.4856V16H0.8832C0.3952 16 0 15.6048 0 15.1168V0.8832C0 0.3952 0.3952 0 0.8832 0H15.1168C15.6048 0 16 0.3952 16 0.8832V15.1168C16 15.6048 15.6048 16 15.1168 16H10.98Z" fill="#361566"/>
</svg>
