<svg width="24" height="24" viewBox="0 0 24 24" fill="none" xmlns="http://www.w3.org/2000/svg">
<rect width="24" height="24" rx="12" fill="#361566"/>
<path d="M6.54169 7.21869C6.24829 7.21869 6.01044 7.45654 6.01044 7.74994C6.01044 8.04334 6.24829 8.28119 6.54169 8.28119H16.4584C16.7518 8.28119 16.9896 8.04334 16.9896 7.74994C16.9896 7.45654 16.7518 7.21869 16.4584 7.21869H6.54169Z" fill="#FAD278"/>
<path d="M6.54169 11.4687C6.24829 11.4687 6.01044 11.7065 6.01044 11.9999C6.01044 12.2933 6.24829 12.5312 6.54169 12.5312H10.7917C11.0851 12.5312 11.3229 12.2933 11.3229 11.9999C11.3229 11.7065 11.0851 11.4687 10.7917 11.4687H6.54169Z" fill="#FAD278"/>
<path d="M6.54169 15.7187C6.24829 15.7187 6.01044 15.9565 6.01044 16.2499C6.01044 16.5433 6.24829 16.7812 6.54169 16.7812H8.66669C8.96009 16.7812 9.19794 16.5433 9.19794 16.2499C9.19794 15.9565 8.96009 15.7187 8.66669 15.7187H6.54169Z" fill="#FAD278"/>
</svg>
