<svg width="16" height="16" viewBox="0 0 16 16" fill="none" xmlns="http://www.w3.org/2000/svg">
<path d="M8.82237 0C9.72237 0.0024 10.1792 0.0072 10.5736 0.0184L10.7288 0.024C10.908 0.0304 11.0848 0.0384 11.2984 0.048C12.1496 0.0879999 12.7304 0.2224 13.24 0.42C13.768 0.6232 14.2128 0.8984 14.6576 1.3424C15.0645 1.74219 15.3793 2.22598 15.58 2.76C15.7776 3.2696 15.912 3.8504 15.952 4.7024C15.9616 4.9152 15.9696 5.092 15.976 5.272L15.9808 5.4272C15.9928 5.8208 15.9976 6.2776 15.9992 7.1776L16 7.7744V8.8224C16.0019 9.40592 15.9958 9.98945 15.9816 10.5728L15.9768 10.728C15.9704 10.908 15.9624 11.0848 15.9528 11.2976C15.9128 12.1496 15.7768 12.7296 15.58 13.24C15.3793 13.774 15.0645 14.2578 14.6576 14.6576C14.2578 15.0646 13.774 15.3793 13.24 15.58C12.7304 15.7776 12.1496 15.912 11.2984 15.952L10.7288 15.976L10.5736 15.9808C10.1792 15.992 9.72237 15.9976 8.82237 15.9992L8.22557 16H7.17837C6.59457 16.0021 6.01079 15.9959 5.42717 15.9816L5.27197 15.9768C5.08205 15.9696 4.89218 15.9613 4.70237 15.952C3.85117 15.912 3.27037 15.7776 2.75997 15.58C2.22623 15.3792 1.74272 15.0645 1.34317 14.6576C0.935923 14.2579 0.620854 13.7741 0.419967 13.24C0.222367 12.7304 0.0879667 12.1496 0.0479667 11.2976L0.0239667 10.728L0.0199668 10.5728C0.00521967 9.98945 -0.00144772 9.40593 -3.32437e-05 8.8224V7.1776C-0.00224756 6.59408 0.00361973 6.01056 0.0175668 5.4272L0.0231668 5.272C0.0295668 5.092 0.0375668 4.9152 0.0471668 4.7024C0.0871668 3.8504 0.221567 3.2704 0.419167 2.76C0.620522 2.22576 0.936145 1.74195 1.34397 1.3424C1.74329 0.935639 2.22652 0.620859 2.75997 0.42C3.27037 0.2224 3.85037 0.0879999 4.70237 0.048C4.91517 0.0384 5.09277 0.0304 5.27197 0.024L5.42717 0.0191999C6.01052 0.00498617 6.59404 -0.00114776 7.17757 0.000799942L8.82237 0ZM7.99997 4C6.9391 4 5.92168 4.42143 5.17154 5.17157C4.42139 5.92172 3.99997 6.93913 3.99997 8C3.99997 9.06087 4.42139 10.0783 5.17154 10.8284C5.92168 11.5786 6.9391 12 7.99997 12C9.06083 12 10.0782 11.5786 10.8284 10.8284C11.5785 10.0783 12 9.06087 12 8C12 6.93913 11.5785 5.92172 10.8284 5.17157C10.0782 4.42143 9.06083 4 7.99997 4ZM7.99997 5.6C8.31514 5.59995 8.62724 5.66197 8.91844 5.78254C9.20964 5.9031 9.47424 6.07984 9.69714 6.30266C9.92004 6.52548 10.0969 6.79003 10.2175 7.08119C10.3382 7.37235 10.4003 7.68443 10.4004 7.9996C10.4004 8.31477 10.3384 8.62687 10.2178 8.91807C10.0973 9.20927 9.92053 9.47388 9.69771 9.69677C9.47488 9.91967 9.21034 10.0965 8.91918 10.2172C8.62801 10.3378 8.31594 10.3999 8.00077 10.4C7.36425 10.4 6.7538 10.1471 6.30371 9.69706C5.85362 9.24697 5.60077 8.63652 5.60077 8C5.60077 7.36348 5.85362 6.75303 6.30371 6.30294C6.7538 5.85286 7.36425 5.6 8.00077 5.6M12.2008 2.8C11.9355 2.8 11.6812 2.90536 11.4937 3.09289C11.3061 3.28043 11.2008 3.53478 11.2008 3.8C11.2008 4.06522 11.3061 4.31957 11.4937 4.50711C11.6812 4.69464 11.9355 4.8 12.2008 4.8C12.466 4.8 12.7203 4.69464 12.9079 4.50711C13.0954 4.31957 13.2008 4.06522 13.2008 3.8C13.2008 3.53478 13.0954 3.28043 12.9079 3.09289C12.7203 2.90536 12.466 2.8 12.2008 2.8Z" fill="#361566"/>
</svg>
