<svg width="36" height="36" viewBox="0 0 36 36" fill="none" xmlns="http://www.w3.org/2000/svg">
<rect width="36" height="36" rx="8" fill="#361566"/>
<path fill-rule="evenodd" clip-rule="evenodd" d="M20.7808 25.7005C23.0905 22.7551 26 18.4759 26 15.6087C26 10.8542 22.4183 7 18 7C13.5817 7 10 10.8542 10 15.6087C10 18.4759 12.9095 22.7551 15.2192 25.7005C16.4242 27.2371 17.0268 28.0055 18 28.0055C18.9732 28.0055 19.5758 27.2371 20.7808 25.7005ZM18 19C16.3431 19 15 17.6569 15 16C15 14.3431 16.3431 13 18 13C19.6569 13 21 14.3431 21 16C21 17.6569 19.6569 19 18 19Z" fill="white"/>
</svg>
